<?xml version="1.0" encoding="UTF-8" standalone="no"?>
<!-- Created with Inkscape (http://www.inkscape.org/) -->

<svg
   width="16"
   height="16"
   viewBox="0 0 4.2333333 4.2333334"
   version="1.1"
   id="svg1"
   inkscape:export-filename="mardacom-favicon.png"
   inkscape:export-xdpi="96"
   inkscape:export-ydpi="96"
   inkscape:version="1.3-beta (cedbd6c, 2023-05-28)"
   sodipodi:docname="mardacom-favicon.svg"
   xmlns:inkscape="http://www.inkscape.org/namespaces/inkscape"
   xmlns:sodipodi="http://sodipodi.sourceforge.net/DTD/sodipodi-0.dtd"
   xmlns="http://www.w3.org/2000/svg"
   xmlns:svg="http://www.w3.org/2000/svg">
  <sodipodi:namedview
     id="namedview1"
     pagecolor="#505050"
     bordercolor="#eeeeee"
     borderopacity="1"
     inkscape:showpageshadow="0"
     inkscape:pageopacity="0"
     inkscape:pagecheckerboard="0"
     inkscape:deskcolor="#505050"
     inkscape:document-units="mm"
     inkscape:zoom="0.9983453"
     inkscape:cx="10.016574"
     inkscape:cy="6.5107734"
     inkscape:window-width="1600"
     inkscape:window-height="832"
     inkscape:window-x="0"
     inkscape:window-y="0"
     inkscape:window-maximized="1"
     inkscape:current-layer="layer1" />
  <defs
     id="defs1" />
  <g
     inkscape:label="Calque 1"
     inkscape:groupmode="layer"
     id="layer1">
    <rect
       style="opacity:1;fill:#0e1826;stroke-width:7.46501;stroke-linecap:round;stroke-linejoin:round;stroke-miterlimit:103.4;paint-order:stroke markers fill"
       id="rect1"
       width="4.2333331"
       height="4.2333331"
       x="0"
       y="0" />
    <g
       id="g35"
       transform="matrix(0.00330677,0,0,0.00216616,-2.4888201,-2.3302266)">
      <path
         id="path1"
         d="m 944.465,1854.695 c -7.481,-0.963 -10.102,-2.31 -13.707,-7.036 -9.684,-12.695 -11.055,-57.218 -4.926,-159.769 l 2.363,-39.501 11.731,-19.503 c 6.453,-10.728 22.09,-38.226 34.754,-61.108 21.566,-38.977 23.211,-41.6 26.035,-41.6 h 3.012 l -0.547,72.477 c -0.719,95.055 1.062,130.358 7.57,149.971 2.59,7.809 8.41,16.205 11.23,16.205 2.797,0 39.227,-58.308 133.543,-213.748 21.668,-35.713 39.915,-66.062 40.547,-67.447 1.012,-2.225 0.356,-3.408 -5.699,-10.22 -4.633,-5.212 -6.73,-8.443 -6.484,-9.984 0.472,-2.99 81.816,-61.817 85.472,-61.817 1.391,0 2.528,0.371 2.532,0.823 0,0.456 1.734,22.654 3.847,49.333 2.114,26.675 3.848,49.865 3.852,51.533 l 0.012,3.028 -11.301,0.064 c -6.215,0.034 -12.981,0.654 -15.035,1.377 -3.5,1.233 -9.985,12.163 -103.153,173.833 l -99.414,172.511 -13.144,0.68 c -18.133,0.933 -85.641,0.861 -93.09,-0.102 z"
         style="fill:none;stroke:#ffffff;stroke-width:18.5899;stroke-linecap:round;stroke-linejoin:round;stroke-miterlimit:103.4;stroke-dasharray:none;stroke-opacity:1"
         transform="scale(1.3333333,1.233224)" />
      <path
         id="path2"
         d="m 944.465,1715.441 c -7.481,-0.89 -10.102,-2.136 -13.707,-6.507 -9.684,-11.743 -11.055,-52.922 -4.926,-147.774 l 2.363,-36.535 11.731,-18.039 c 6.453,-9.922 22.09,-35.356 34.754,-56.52 21.566,-36.05 23.211,-38.476 26.035,-38.476 h 3.012 l -0.547,67.035 c -0.719,87.918 1.062,120.57 7.57,138.711 2.59,7.223 8.41,14.988 11.23,14.988 2.797,0 39.227,-53.929 133.543,-197.699 21.668,-33.031 39.915,-61.102 40.547,-62.383 1.012,-2.058 0.356,-3.152 -5.699,-9.453 -4.633,-4.82 -6.73,-7.809 -6.484,-9.234 0.472,-2.766 81.816,-57.176 85.472,-57.176 1.391,0 2.528,0.344 2.532,0.762 0,0.421 1.734,20.953 3.847,45.629 2.114,24.671 3.848,46.121 3.852,47.664 l 0.012,2.8 -11.301,0.059 c -6.215,0.031 -12.981,0.605 -15.035,1.273 -3.5,1.141 -9.985,11.25 -103.153,160.782 l -99.414,159.558 -13.144,0.629 c -18.133,0.863 -85.641,0.797 -93.09,-0.094 z"
         style="fill:#ffffff;fill-opacity:1;fill-rule:nonzero;stroke:none"
         transform="scale(1.3333333)" />
      <path
         id="path3"
         d="m 1236.137,1842.169 c -0.379,-7.374 -2.172,-58.891 -3.992,-114.487 l -3.305,-101.081 37.629,-52.969 c 34.793,-48.974 37.867,-52.965 40.812,-52.965 h 3.184 l -0.016,31.138 c -0.015,36.726 15.781,312.95 -3.554,302.337 -0.18,-0.097 -5.219,1.495 -24.415,1.478 l -45.66,-0.051 z"
         style="fill:none;stroke:#ffffff;stroke-width:18.5899;stroke-linecap:round;stroke-linejoin:round;stroke-miterlimit:103.4;stroke-dasharray:none;stroke-opacity:1"
         transform="scale(1.3333333,1.233224)" />
      <path
         id="path4"
         d="m 1236.137,1703.855 c -0.379,-6.82 -2.172,-54.468 -3.992,-105.89 l -3.305,-93.492 37.629,-48.993 c 34.793,-45.296 37.867,-48.988 40.812,-48.988 h 3.184 l -0.016,28.801 c -0.015,33.969 15.781,289.453 -3.554,279.637 -0.18,-0.09 -5.219,1.382 -24.415,1.367 l -45.66,-0.047 z"
         style="fill:#ffffff;fill-opacity:1;fill-rule:nonzero;stroke:none"
         transform="scale(1.3333333)" />
      <path
         id="path5"
         d="m 737.258,1851.312 c -10.004,-0.409 -22.531,-0.815 -27.836,-0.899 -9.328,-0.148 -9.645,-0.237 -9.645,-2.729 0,-3.306 114.035,-194.354 169.305,-283.652 40.453,-65.356 61.516,-95.596 71.426,-102.547 3.195,-2.243 5.18,-2.69 28.512,-3.185 4.148,-0.088 14.687,-0.076 22.742,0.013 5.652,0.063 7.953,4.266 5.066,9.131 -23.945,40.324 -124.105,206.847 -151.289,254.393 -42.207,73.82 -61.496,105.787 -74.34,123.187 -5.488,7.433 -5.496,7.441 -10.625,7.239 -2.82,-0.11 -13.316,-0.537 -23.316,-0.951 z"
         style="fill:none;stroke:#ffffff;stroke-width:18.5899;stroke-linecap:round;stroke-linejoin:round;stroke-miterlimit:103.4;stroke-dasharray:none;stroke-opacity:1"
         transform="scale(1.3333333,1.233224)" />
      <path
         id="path6"
         d="m 737.258,1712.312 c -10.004,-0.378 -22.531,-0.753 -27.836,-0.832 -9.328,-0.136 -9.645,-0.218 -9.645,-2.523 0,-3.059 114.035,-179.762 169.305,-262.355 40.453,-60.45 61.516,-88.418 71.426,-94.848 3.195,-2.074 5.18,-2.488 28.512,-2.945 4.148,-0.082 14.687,-0.071 22.742,0.011 5.652,0.059 7.953,3.946 5.066,8.446 -23.945,37.296 -124.105,191.316 -151.289,235.293 -42.207,68.277 -61.496,97.843 -74.34,113.937 -5.488,6.875 -5.496,6.883 -10.625,6.695 -2.82,-0.101 -13.316,-0.496 -23.316,-0.879 z"
         style="fill:#ffffff;fill-opacity:1;fill-rule:nonzero;stroke:none"
         transform="scale(1.3333333)" />
      <path
         id="path7"
         d="m 944.465,1854.695 c -7.481,-0.963 -10.102,-2.31 -13.707,-7.036 -9.684,-12.695 -11.055,-57.218 -4.926,-159.769 l 2.363,-39.501 11.731,-19.503 c 6.453,-10.728 22.09,-38.226 34.754,-61.108 21.566,-38.977 23.211,-41.6 26.035,-41.6 h 3.012 l -0.547,72.477 c -0.719,95.055 1.062,130.358 7.57,149.971 2.59,7.809 8.41,16.205 11.23,16.205 2.797,0 39.227,-58.308 133.543,-213.748 21.668,-35.713 39.915,-66.062 40.547,-67.447 1.012,-2.225 0.356,-3.408 -5.699,-10.22 -4.633,-5.212 -6.73,-8.443 -6.484,-9.984 0.472,-2.99 81.816,-61.817 85.472,-61.817 1.391,0 2.528,0.371 2.532,0.823 0,0.456 1.734,22.654 3.847,49.333 2.114,26.675 3.848,49.865 3.852,51.533 l 0.012,3.028 -11.301,0.064 c -6.215,0.034 -12.981,0.654 -15.035,1.377 -3.5,1.233 -9.985,12.163 -103.153,173.833 l -99.414,172.511 -13.144,0.68 c -18.133,0.933 -85.641,0.861 -93.09,-0.102 z"
         style="fill:none;stroke:#ffffff;stroke-width:18.5899;stroke-linecap:round;stroke-linejoin:round;stroke-miterlimit:103.4;stroke-dasharray:none;stroke-opacity:1"
         transform="scale(1.3333333,1.233224)" />
      <path
         id="path8"
         d="m 944.465,1715.441 c -7.481,-0.89 -10.102,-2.136 -13.707,-6.507 -9.684,-11.743 -11.055,-52.922 -4.926,-147.774 l 2.363,-36.535 11.731,-18.039 c 6.453,-9.922 22.09,-35.356 34.754,-56.52 21.566,-36.05 23.211,-38.476 26.035,-38.476 h 3.012 l -0.547,67.035 c -0.719,87.918 1.062,120.57 7.57,138.711 2.59,7.223 8.41,14.988 11.23,14.988 2.797,0 39.227,-53.929 133.543,-197.699 21.668,-33.031 39.915,-61.102 40.547,-62.383 1.012,-2.058 0.356,-3.152 -5.699,-9.453 -4.633,-4.82 -6.73,-7.809 -6.484,-9.234 0.472,-2.766 81.816,-57.176 85.472,-57.176 1.391,0 2.528,0.344 2.532,0.762 0,0.421 1.734,20.953 3.847,45.629 2.114,24.671 3.848,46.121 3.852,47.664 l 0.012,2.8 -11.301,0.059 c -6.215,0.031 -12.981,0.605 -15.035,1.273 -3.5,1.141 -9.985,11.25 -103.153,160.782 l -99.414,159.558 -13.144,0.629 c -18.133,0.863 -85.641,0.797 -93.09,-0.094 z"
         style="fill:#ffffff;fill-opacity:1;fill-rule:nonzero;stroke:none"
         transform="scale(1.3333333)" />
      <path
         id="path9"
         d="m 1236.137,1842.169 c -0.379,-7.374 -2.172,-58.891 -3.992,-114.487 l -3.305,-101.081 37.629,-52.969 c 34.793,-48.974 37.867,-52.965 40.812,-52.965 h 3.184 l -0.016,31.138 c -0.015,36.726 15.781,312.95 -3.554,302.337 -0.18,-0.097 -5.219,1.495 -24.415,1.478 l -45.66,-0.051 z"
         style="fill:none;stroke:#ffffff;stroke-width:18.5899;stroke-linecap:round;stroke-linejoin:round;stroke-miterlimit:103.4;stroke-dasharray:none;stroke-opacity:1"
         transform="scale(1.3333333,1.233224)" />
      <path
         id="path10"
         d="m 1236.137,1703.855 c -0.379,-6.82 -2.172,-54.468 -3.992,-105.89 l -3.305,-93.492 37.629,-48.993 c 34.793,-45.296 37.867,-48.988 40.812,-48.988 h 3.184 l -0.016,28.801 c -0.015,33.969 15.781,289.453 -3.554,279.637 -0.18,-0.09 -5.219,1.382 -24.415,1.367 l -45.66,-0.047 z"
         style="fill:#ffffff;fill-opacity:1;fill-rule:nonzero;stroke:none"
         transform="scale(1.3333333)" />
      <path
         id="path11"
         d="m 737.258,1851.312 c -10.004,-0.409 -22.531,-0.815 -27.836,-0.899 -9.328,-0.148 -9.645,-0.237 -9.645,-2.729 0,-3.306 114.035,-194.354 169.305,-283.652 40.453,-65.356 61.516,-95.596 71.426,-102.547 3.195,-2.243 5.18,-2.69 28.512,-3.185 4.148,-0.088 14.687,-0.076 22.742,0.013 5.652,0.063 7.953,4.266 5.066,9.131 -23.945,40.324 -124.105,206.847 -151.289,254.393 -42.207,73.82 -61.496,105.787 -74.34,123.187 -5.488,7.433 -5.496,7.441 -10.625,7.239 -2.82,-0.11 -13.316,-0.537 -23.316,-0.951 z"
         style="fill:none;stroke:#ffffff;stroke-width:18.5899;stroke-linecap:round;stroke-linejoin:round;stroke-miterlimit:103.4;stroke-dasharray:none;stroke-opacity:1"
         transform="scale(1.3333333,1.233224)" />
      <path
         id="path12"
         d="m 737.258,1712.312 c -10.004,-0.378 -22.531,-0.753 -27.836,-0.832 -9.328,-0.136 -9.645,-0.218 -9.645,-2.523 0,-3.059 114.035,-179.762 169.305,-262.355 40.453,-60.45 61.516,-88.418 71.426,-94.848 3.195,-2.074 5.18,-2.488 28.512,-2.945 4.148,-0.082 14.687,-0.071 22.742,0.011 5.652,0.059 7.953,3.946 5.066,8.446 -23.945,37.296 -124.105,191.316 -151.289,235.293 -42.207,68.277 -61.496,97.843 -74.34,113.937 -5.488,6.875 -5.496,6.883 -10.625,6.695 -2.82,-0.101 -13.316,-0.496 -23.316,-0.879 z"
         style="fill:#ffffff;fill-opacity:1;fill-rule:nonzero;stroke:none"
         transform="scale(1.3333333)" />
    </g>
  </g>
</svg>
